<svg width="18" height="18" viewBox="0 0 18 18" fill="none" xmlns="http://www.w3.org/2000/svg">
  <path d="M17.3171 5.56606C17.2781 4.6805 17.1349 4.07168 16.9297 3.54413C16.7181 2.98415 16.3925 2.4828 15.9659 2.06603C15.5492 1.64277 15.0445 1.31388 14.491 1.10555C13.9604 0.900411 13.3548 0.757205 12.4692 0.71816C11.577 0.675809 11.2938 0.666016 9.03099 0.666016C6.76818 0.666016 6.48495 0.675809 5.59608 0.714853C4.71052 0.753898 4.1017 0.897231 3.57428 1.10225C3.01418 1.31388 2.51283 1.63946 2.09606 2.06603C1.6728 2.4828 1.34403 2.98746 1.13558 3.54095C0.93044 4.07168 0.787234 4.67719 0.748189 5.56275C0.705838 6.45493 0.696045 6.73816 0.696045 9.00098C0.696045 11.2638 0.705838 11.547 0.744883 12.4359C0.783927 13.3215 0.92726 13.9303 1.1324 14.4578C1.34403 15.0178 1.6728 15.5191 2.09606 15.9359C2.51283 16.3592 3.01748 16.6881 3.57098 16.8964C4.1017 17.1015 4.70721 17.2447 5.5929 17.2838C6.48165 17.323 6.76501 17.3326 9.02781 17.3326C11.2906 17.3326 11.5739 17.323 12.4627 17.2838C13.3483 17.2447 13.9571 17.1015 14.4845 16.8964C15.6046 16.4633 16.4902 15.5778 16.9232 14.4578C17.1282 13.9271 17.2716 13.3215 17.3106 12.4359C17.3497 11.547 17.3595 11.2638 17.3595 9.00098C17.3595 6.73816 17.3561 6.45493 17.3171 5.56606ZM15.8162 12.3708C15.7804 13.1847 15.6437 13.6243 15.5297 13.9173C15.2496 14.6434 14.6734 15.2196 13.9473 15.4997C13.6543 15.6136 13.2116 15.7504 12.4008 15.7861C11.5217 15.8253 11.2581 15.8349 9.0343 15.8349C6.81054 15.8349 6.54358 15.8253 5.66769 15.7861C4.85373 15.7504 4.41419 15.6136 4.12116 15.4997C3.75984 15.3661 3.43095 15.1545 3.164 14.8778C2.88725 14.6075 2.67562 14.2819 2.54208 13.9206C2.42813 13.6276 2.29141 13.1847 2.25567 12.3741C2.2165 11.495 2.20683 11.2312 2.20683 9.00746C2.20683 6.7837 2.2165 6.51674 2.25567 5.64097C2.29141 4.82701 2.42813 4.38747 2.54208 4.09444C2.67562 3.733 2.88725 3.40423 3.1673 3.13715C3.43744 2.8604 3.76302 2.64877 4.12447 2.51536C4.41749 2.40141 4.86034 2.26469 5.67099 2.22882C6.55007 2.18978 6.81384 2.17998 9.03748 2.17998C11.2646 2.17998 11.5282 2.18978 12.4041 2.22882C13.2181 2.26469 13.6576 2.40141 13.9506 2.51536C14.3119 2.64877 14.6408 2.8604 14.9078 3.13715C15.1845 3.40741 15.3962 3.733 15.5297 4.09444C15.6437 4.38747 15.7804 4.83019 15.8162 5.64097C15.8553 6.52005 15.8651 6.7837 15.8651 9.00746C15.8651 11.2312 15.8553 11.4917 15.8162 12.3708Z"/>
  <path d="M9.03099 4.71954C6.66732 4.71954 4.74956 6.63719 4.74956 9.00098C4.74956 11.3648 6.66732 13.2824 9.03099 13.2824C11.3948 13.2824 13.3124 11.3648 13.3124 9.00098C13.3124 6.63719 11.3948 4.71954 9.03099 4.71954ZM9.03099 11.7782C7.49756 11.7782 6.25373 10.5345 6.25373 9.00098C6.25373 7.46743 7.49756 6.22372 9.03099 6.22372C10.5645 6.22372 11.8083 7.46743 11.8083 9.00098C11.8083 10.5345 10.5645 11.7782 9.03099 11.7782Z"/>
  <path d="M14.4814 4.55027C14.4814 5.10223 14.0338 5.54979 13.4817 5.54979C12.9298 5.54979 12.4822 5.10223 12.4822 4.55027C12.4822 3.99817 12.9298 3.55074 13.4817 3.55074C14.0338 3.55074 14.4814 3.99817 14.4814 4.55027Z"/>
</svg>
