<svg width="18" height="18" viewBox="0 0 18 18" fill="none" xmlns="http://www.w3.org/2000/svg">
  <path d="M17.3293 17.3327L17.3334 17.332V11.2195C17.3334 8.22921 16.6897 5.92574 13.1938 5.92574C11.5133 5.92574 10.3855 6.84796 9.92508 7.72227H9.87647V6.2049H6.56188V17.332H10.0133V11.8223C10.0133 10.3716 10.2883 8.9688 12.0848 8.9688C13.8549 8.9688 13.8813 10.6244 13.8813 11.9153V17.3327H17.3293Z"/>
  <path d="M0.941744 6.2056H4.3973V17.3327H0.941744V6.2056Z"/>
  <path d="M2.66814 0.666016C1.56328 0.666016 0.666748 1.56254 0.666748 2.6674C0.666748 3.77227 1.56328 4.68754 2.66814 4.68754C3.773 4.68754 4.66953 3.77227 4.66953 2.6674C4.66883 1.56254 3.7723 0.666016 2.66814 0.666016Z"/>
</svg>
