<svg display="none" xmlns="http://www.w3.org/2000/svg">
  <symbol id="linkedin" viewBox="0 0 18 18">
    <path d="M17.3293 17.3327L17.3334 17.332V11.2195C17.3334 8.22921 16.6897 5.92574 13.1938 5.92574C11.5133 5.92574 10.3855 6.84796 9.92508 7.72227H9.87647V6.2049H6.56188V17.332H10.0133V11.8223C10.0133 10.3716 10.2883 8.9688 12.0848 8.9688C13.8549 8.9688 13.8813 10.6244 13.8813 11.9153V17.3327H17.3293Z"/>
    <path d="M0.941744 6.2056H4.3973V17.3327H0.941744V6.2056Z"/>
    <path d="M2.66814 0.666016C1.56328 0.666016 0.666748 1.56254 0.666748 2.6674C0.666748 3.77227 1.56328 4.68754 2.66814 4.68754C3.773 4.68754 4.66953 3.77227 4.66953 2.6674C4.66883 1.56254 3.7723 0.666016 2.66814 0.666016Z"/>
  </symbol>
  <symbol id="twitter" viewBox="0 0 22 18">
    <path d="M21.5 2.77233C20.7271 3.10027 19.8978 3.32267 19.0264 3.42196C19.9161 2.91181 20.5972 2.10263 20.92 1.1414C20.0854 1.61383 19.1642 1.95688 18.1826 2.14285C17.3966 1.33994 16.2785 0.839844 15.0384 0.839844C12.6593 0.839844 10.7303 2.68691 10.7303 4.9637C10.7303 5.2866 10.7683 5.60199 10.8418 5.90357C7.26201 5.73141 4.08768 4.08917 1.96314 1.59372C1.59176 2.20189 1.38049 2.91053 1.38049 3.66697C1.38049 5.09814 2.14161 6.36093 3.2964 7.09973C2.5904 7.07713 1.92639 6.89116 1.34508 6.58205V6.63357C1.34508 8.63141 2.83056 10.2988 4.80024 10.6783C4.43936 10.7713 4.05882 10.8228 3.66514 10.8228C3.38696 10.8228 3.11794 10.7964 2.85417 10.7461C3.40267 12.3859 4.99315 13.5783 6.87756 13.611C5.40388 14.7167 3.54573 15.3739 1.52749 15.3739C1.17976 15.3739 0.837236 15.3537 0.5 15.3173C2.40671 16.4896 4.67036 17.1732 7.10327 17.1732C15.028 17.1732 19.3597 10.8881 19.3597 5.43741L19.3453 4.90341C20.1917 4.32537 20.9239 3.59912 21.5 2.77233Z"/>
  </symbol>
  <symbol id="facebook" viewBox="0 0 10 20">
    <path d="M9.63586 0.837799L7.32148 0.833984C4.72134 0.833984 3.04102 2.60489 3.04102 5.34584V7.42611H0.714012C0.512931 7.42611 0.350098 7.59357 0.350098 7.80013V10.8142C0.350098 11.0208 0.513117 11.188 0.714012 11.188H3.04102V18.7935C3.04102 19 3.20386 19.1673 3.40494 19.1673H6.44103C6.64211 19.1673 6.80494 18.9999 6.80494 18.7935V11.188H9.52576C9.72684 11.188 9.88967 11.0208 9.88967 10.8142L9.89079 7.80013C9.89079 7.70095 9.85235 7.60597 9.78421 7.53578C9.71607 7.46559 9.62324 7.42611 9.52669 7.42611H6.80494V5.66264C6.80494 4.81505 7.00157 4.38476 8.07641 4.38476L9.63549 4.38419C9.83639 4.38419 9.99922 4.21673 9.99922 4.01037V1.21163C9.99922 1.00545 9.83657 0.83818 9.63586 0.837799Z"/>
  </symbol>
  <symbol id="instagram" viewBox="0 0 18 18">
    <path d="M17.3171 5.56606C17.2781 4.6805 17.1349 4.07168 16.9297 3.54413C16.7181 2.98415 16.3925 2.4828 15.9659 2.06603C15.5492 1.64277 15.0445 1.31388 14.491 1.10555C13.9604 0.900411 13.3548 0.757205 12.4692 0.71816C11.577 0.675809 11.2938 0.666016 9.03099 0.666016C6.76818 0.666016 6.48495 0.675809 5.59608 0.714853C4.71052 0.753898 4.1017 0.897231 3.57428 1.10225C3.01418 1.31388 2.51283 1.63946 2.09606 2.06603C1.6728 2.4828 1.34403 2.98746 1.13558 3.54095C0.93044 4.07168 0.787234 4.67719 0.748189 5.56275C0.705838 6.45493 0.696045 6.73816 0.696045 9.00098C0.696045 11.2638 0.705838 11.547 0.744883 12.4359C0.783927 13.3215 0.92726 13.9303 1.1324 14.4578C1.34403 15.0178 1.6728 15.5191 2.09606 15.9359C2.51283 16.3592 3.01748 16.6881 3.57098 16.8964C4.1017 17.1015 4.70721 17.2447 5.5929 17.2838C6.48165 17.323 6.76501 17.3326 9.02781 17.3326C11.2906 17.3326 11.5739 17.323 12.4627 17.2838C13.3483 17.2447 13.9571 17.1015 14.4845 16.8964C15.6046 16.4633 16.4902 15.5778 16.9232 14.4578C17.1282 13.9271 17.2716 13.3215 17.3106 12.4359C17.3497 11.547 17.3595 11.2638 17.3595 9.00098C17.3595 6.73816 17.3561 6.45493 17.3171 5.56606ZM15.8162 12.3708C15.7804 13.1847 15.6437 13.6243 15.5297 13.9173C15.2496 14.6434 14.6734 15.2196 13.9473 15.4997C13.6543 15.6136 13.2116 15.7504 12.4008 15.7861C11.5217 15.8253 11.2581 15.8349 9.0343 15.8349C6.81054 15.8349 6.54358 15.8253 5.66769 15.7861C4.85373 15.7504 4.41419 15.6136 4.12116 15.4997C3.75984 15.3661 3.43095 15.1545 3.164 14.8778C2.88725 14.6075 2.67562 14.2819 2.54208 13.9206C2.42813 13.6276 2.29141 13.1847 2.25567 12.3741C2.2165 11.495 2.20683 11.2312 2.20683 9.00746C2.20683 6.7837 2.2165 6.51674 2.25567 5.64097C2.29141 4.82701 2.42813 4.38747 2.54208 4.09444C2.67562 3.733 2.88725 3.40423 3.1673 3.13715C3.43744 2.8604 3.76302 2.64877 4.12447 2.51536C4.41749 2.40141 4.86034 2.26469 5.67099 2.22882C6.55007 2.18978 6.81384 2.17998 9.03748 2.17998C11.2646 2.17998 11.5282 2.18978 12.4041 2.22882C13.2181 2.26469 13.6576 2.40141 13.9506 2.51536C14.3119 2.64877 14.6408 2.8604 14.9078 3.13715C15.1845 3.40741 15.3962 3.733 15.5297 4.09444C15.6437 4.38747 15.7804 4.83019 15.8162 5.64097C15.8553 6.52005 15.8651 6.7837 15.8651 9.00746C15.8651 11.2312 15.8553 11.4917 15.8162 12.3708Z"/>
    <path d="M9.03099 4.71954C6.66732 4.71954 4.74956 6.63719 4.74956 9.00098C4.74956 11.3648 6.66732 13.2824 9.03099 13.2824C11.3948 13.2824 13.3124 11.3648 13.3124 9.00098C13.3124 6.63719 11.3948 4.71954 9.03099 4.71954ZM9.03099 11.7782C7.49756 11.7782 6.25373 10.5345 6.25373 9.00098C6.25373 7.46743 7.49756 6.22372 9.03099 6.22372C10.5645 6.22372 11.8083 7.46743 11.8083 9.00098C11.8083 10.5345 10.5645 11.7782 9.03099 11.7782Z"/>
    <path d="M14.4814 4.55027C14.4814 5.10223 14.0338 5.54979 13.4817 5.54979C12.9298 5.54979 12.4822 5.10223 12.4822 4.55027C12.4822 3.99817 12.9298 3.55074 13.4817 3.55074C14.0338 3.55074 14.4814 3.99817 14.4814 4.55027Z"/>
  </symbol>

  <symbol id="youtube" viewBox="0 0 24 18">
    <path fill-rule="evenodd" clip-rule="evenodd" d="M21.3903 1.11358C22.4182 1.39044 23.2288 2.20086 23.5055 3.22899C24.0197 5.10691 23.9999 9.02132 23.9999 9.02132C23.9999 9.02132 23.9999 12.9158 23.5057 14.7939C23.2288 15.8218 22.4184 16.6324 21.3903 16.9091C19.5122 17.4035 12 17.4035 12 17.4035C12 17.4035 4.50731 17.4035 2.60961 16.8895C1.58148 16.6127 0.771054 15.802 0.4942 14.7741C0 12.9158 0 9.00154 0 9.00154C0 9.00154 0 5.10691 0.4942 3.22899C0.770871 2.20104 1.60125 1.37066 2.60943 1.09399C4.48753 0.599609 11.9998 0.599609 11.9998 0.599609C11.9998 0.599609 19.5122 0.599609 21.3903 1.11358ZM15.8549 9.00158L9.60788 12.5996V5.40355L15.8549 9.00158Z"/>
  </symbol>

  <symbol id="telegram">
    <path d="M8.63262 13.1813L8.2687 18.7653C8.78938 18.7653 9.01488 18.5213 9.2853 18.2283L11.7264 15.6833L16.7847 19.7243C17.7124 20.2883 18.366 19.9913 18.6163 18.7933L21.9365 1.8214L21.9374 1.8204C22.2317 0.324404 21.4415 -0.260593 20.5377 0.106405L1.02135 8.25736C-0.310594 8.82136 -0.290427 9.63136 0.794932 9.99835L5.78447 11.6913L17.3742 3.78039C17.9196 3.38639 18.4155 3.60439 18.0076 3.99839L8.63262 13.1813Z"/>
  </symbol>


</svg>