<svg display='none' xmlns="http://www.w3.org/2000/svg">
  <symbol id="arrow-top" viewBox="0 0 24 24">
    <path fill-rule="evenodd" clip-rule="evenodd" d="M6.79289 9.20711C6.40237 8.81658 6.40237 8.18342 6.79289 7.79289L11.2929 3.29289C11.6834 2.90237 12.3166 2.90237 12.7071 3.29289L17.2071 7.79289C17.5976 8.18342 17.5976 8.81658 17.2071 9.20711C16.8166 9.59763 16.1834 9.59763 15.7929 9.20711L13 6.41421V20C13 20.5523 12.5523 21 12 21C11.4477 21 11 20.5523 11 20V6.41421L8.20711 9.20711C7.81658 9.59763 7.18342 9.59763 6.79289 9.20711Z"/>
  </symbol>
  <symbol id="tick-circled" viewBox="0 0 24 24">
    <path d="M9.99992 19.1673C15.0542 19.1673 19.1666 15.0553 19.1666 10.0007C19.1666 9.12822 19.0448 8.26847 18.8037 7.44509C18.6849 7.04021 18.2621 6.80765 17.8561 6.92645C17.4508 7.04487 17.219 7.46915 17.3374 7.87403C17.5372 8.5581 17.6388 9.27387 17.6388 10.0007C17.6388 14.2127 14.2119 17.6395 9.99992 17.6395C5.7879 17.6395 2.36103 14.2127 2.36103 10.0007C2.36103 5.78863 5.7879 2.36176 9.99992 2.36176C11.5307 2.36176 13.0034 2.80935 14.2589 3.65586C14.6084 3.89178 15.0836 3.79909 15.3192 3.44959C15.5549 3.09973 15.463 2.62491 15.1131 2.38918C13.6043 1.37184 11.8363 0.833984 9.99992 0.833984C4.94568 0.833984 0.833252 4.94604 0.833252 10.0007C0.833252 15.0553 4.94568 19.1673 9.99992 19.1673Z"/>
    <path d="M18.5772 1.91131L9.99977 10.4884L7.25563 7.74464C6.9301 7.41932 6.40276 7.41932 6.07724 7.74464C5.75192 8.07016 5.75192 8.5975 6.07724 8.92302L9.41057 12.2564C9.57354 12.4193 9.78635 12.5005 9.99977 12.5005C10.2132 12.5005 10.426 12.4193 10.589 12.2564L19.7556 3.08969C20.0809 2.76417 20.0809 2.23683 19.7556 1.91131C19.4301 1.58599 18.9028 1.58599 18.5772 1.91131Z"/>
  </symbol>
</svg>